<?xml version="1.0" encoding="UTF-8" standalone="no"?>
<!DOCTYPE svg PUBLIC "-//W3C//DTD SVG 1.1//EN" "http://www.w3.org/Graphics/SVG/1.1/DTD/svg11.dtd">
<svg width="100%" height="100%" viewBox="0 0 1201 1201" version="1.1" xmlns="http://www.w3.org/2000/svg" xmlns:xlink="http://www.w3.org/1999/xlink" xml:space="preserve" xmlns:serif="http://www.serif.com/" style="fill-rule:evenodd;clip-rule:evenodd;stroke-linejoin:round;stroke-miterlimit:2;">
    <g transform="matrix(1,0,0,1,-684,-2592)">
        <g transform="matrix(1.05159,0,0,1.05159,-50.6594,1795.08)">
            <rect id="huh-avatar" x="698.718" y="758.646" width="1141.13" height="1141.13" style="fill:none;"/>
            <clipPath id="_clip1">
                <rect id="huh-avatar1" serif:id="huh-avatar" x="698.718" y="758.646" width="1141.13" height="1141.13"/>
            </clipPath>
            <g clip-path="url(#_clip1)">
                <g transform="matrix(3.73372,0,0,5.89786,485.863,381.232)">
                    <rect x="57.009" y="63.992" width="305.629" height="193.483" style="fill:none;"/>
                </g>
                <g transform="matrix(7.38229,0,0,4.58203,-43886.6,-76516.1)">
                    <g transform="matrix(0.419518,0,0,0.675901,1845.67,11042.4)">
                        <circle cx="10152" cy="8770.9" r="16.375" style="fill:rgb(94,94,94);"/>
                    </g>
                    <g transform="matrix(0.419518,0,0,0.675901,1885.74,11042.4)">
                        <circle cx="10152" cy="8770.9" r="16.375" style="fill:rgb(94,94,94);"/>
                    </g>
                    <g transform="matrix(0.35258,0,0,0.568055,2669.69,12903)">
                        <path d="M9614.83,7193.4C9614.83,7104.02 9687.4,7031.46 9776.77,7031.46C9866.15,7031.46 9938.72,7104.02 9938.72,7193.4C9938.72,7282.78 9938.72,7355.34 9776.77,7355.34C9614.83,7355.34 9614.83,7282.78 9614.83,7193.4ZM9788.64,7234.97C9795.51,7237.09 9799.03,7245.49 9796.49,7253.71C9793.96,7261.94 9786.32,7266.89 9779.44,7264.77C9772.57,7262.65 9769.05,7254.25 9771.59,7246.03C9774.12,7237.8 9781.76,7232.85 9788.64,7234.97ZM9687.94,7169.84C9687.94,7143.18 9709.59,7121.53 9736.25,7121.53C9762.91,7121.53 9784.56,7143.18 9784.56,7169.84C9784.56,7196.5 9762.91,7218.15 9736.25,7218.15C9709.59,7218.15 9687.94,7196.5 9687.94,7169.84ZM9801.58,7169.84C9801.58,7143.18 9823.22,7121.53 9849.89,7121.53C9876.55,7121.53 9898.19,7143.18 9898.19,7169.84C9898.19,7196.5 9876.55,7218.15 9849.89,7218.15C9823.22,7218.15 9801.58,7196.5 9801.58,7169.84Z" style="fill:rgb(94,94,94);"/>
                    </g>
                </g>
            </g>
        </g>
    </g>
</svg>
